<svg width="129" height="129" viewBox="0 0 129 129" fill="none" xmlns="http://www.w3.org/2000/svg">
<g filter="url(#filter0_d_53_1543)">
<path fill-rule="evenodd" clip-rule="evenodd" d="M124.992 61.5127C124.997 61.1758 125 60.8382 125 60.5C125 27.0868 97.9132 0 64.5 0C31.0868 0 4 27.0868 4 60.5C4 93.9132 31.0868 121 64.5 121C73.1066 121 81.2935 119.203 88.7058 115.963C82.1441 118.568 74.9893 120 67.5 120C35.7436 120 10 94.2564 10 62.5C10 30.7436 35.7436 5 67.5 5C98.9266 5 124.465 30.2118 124.992 61.5127Z" fill="white"/>
<path d="M27.0398 93.8713C25.9501 93.8713 25.2918 93.7351 25.0648 93.4627C24.7924 93.2357 24.747 92.759 24.9286 92.0326C24.974 91.8056 25.201 90.784 25.6096 88.968C26.0182 87.1973 26.5177 85.018 27.1079 82.4301C27.7435 79.8877 28.4018 77.1182 29.0828 74.1217C29.8093 71.1252 30.4903 68.3103 31.1259 65.677C30.1725 65.7678 29.4688 65.6997 29.0147 65.4727C28.5607 65.2003 28.3337 64.8597 28.3337 64.4511C28.3791 63.9971 28.6288 63.5431 29.0828 63.0891C29.5823 62.6351 30.286 62.2492 31.194 61.9313C31.3756 61.8405 31.648 61.7497 32.0112 61.6589C32.2383 60.8871 32.4426 60.0926 32.6242 59.2753C32.8058 58.5943 32.9874 57.8679 33.169 57.0961C33.3506 56.3242 33.5322 55.5751 33.7138 54.8487L38.481 34.4861C38.7534 33.4419 39.162 32.67 39.7068 32.1706C40.297 31.6258 41.364 31.1718 42.9076 30.8086C44.1789 30.4908 45.0642 30.3773 45.5636 30.4681C46.063 30.5135 46.29 30.6497 46.2446 30.8767C46.1084 31.3761 45.7679 32.5792 45.2231 34.4861C44.6783 36.393 44.02 38.7311 43.2481 41.5006C42.5217 44.2247 41.7272 47.2439 40.8646 50.5582C40.0019 53.8272 39.162 57.0734 38.3448 60.2969C41.0689 59.8883 44.3832 59.5478 48.2877 59.2753C49.786 59.0937 51.2388 58.9802 52.6463 58.9348C54.0991 58.8894 55.4839 58.8894 56.8005 58.9348C57.4361 56.4832 58.049 54.0315 58.6393 51.5798C59.2749 49.1281 59.8651 46.858 60.4099 44.7695C60.9547 42.6811 61.4315 40.8423 61.8401 39.2533C62.2941 37.6188 62.6346 36.4157 62.8616 35.6438C63.134 34.7812 63.3837 34.0775 63.6107 33.5327C63.8831 32.9878 64.1783 32.5565 64.4961 32.2387C64.8593 31.9209 65.2679 31.6939 65.7219 31.5577C66.1759 31.4215 66.698 31.308 67.2883 31.2172C67.6061 31.2172 67.992 31.1945 68.446 31.1491C68.8092 31.1491 69.2405 31.1491 69.74 31.1491C70.2394 31.1037 70.8069 31.1264 71.4425 31.2172C69.7173 35.8481 68.1055 40.5472 66.6072 45.3144C65.1544 50.0361 63.7923 54.6444 62.5211 59.1391C63.3383 59.2299 64.0421 59.2981 64.6323 59.3435C65.2679 59.3889 65.7673 59.457 66.1305 59.5478C67.2202 59.7294 67.9012 60.0245 68.1736 60.4331C68.4914 60.8417 68.4006 61.4319 67.9012 62.2038L67.084 63.2253C66.8116 63.5885 66.471 64.0198 66.0624 64.5192C65.6538 64.9732 65.1317 65.4954 64.4961 66.0856C64.1329 65.9494 63.7469 65.8132 63.3383 65.677C62.9751 65.5408 62.6119 65.4046 62.2487 65.2684C61.7947 65.1322 61.3634 64.9959 60.9547 64.8597C60.6369 65.9494 60.3418 67.0163 60.0694 68.0606C59.797 69.0594 59.5473 70.0809 59.3203 71.1252C58.7755 73.3498 58.2534 75.6426 57.7539 78.0035C57.3453 80.0466 56.914 82.2939 56.46 84.7456C56.0514 87.2427 55.7336 89.6944 55.5066 92.1007C55.1433 92.2823 54.7801 92.3958 54.4169 92.4412C54.0537 92.532 53.7359 92.6001 53.4635 92.6455C53.1457 92.6909 52.8279 92.7363 52.5101 92.7817H52.442H52.3057H52.1695C51.9879 92.7817 51.8063 92.7817 51.6247 92.7817C51.4431 92.7817 51.2615 92.7363 51.0799 92.6455C50.8529 92.6001 50.6259 92.532 50.3989 92.4412C50.1719 92.3504 49.9449 92.2596 49.7179 92.1688C49.5363 92.1234 49.3319 92.0326 49.1049 91.8964C49.4682 90.3981 49.7406 88.9907 49.9222 87.674C50.1492 86.3574 50.3081 85.1996 50.3989 84.2008C50.5351 83.0204 50.6259 81.9761 50.6713 81.0681C50.7167 79.8877 50.5805 78.5937 50.2627 77.1863C49.9903 75.7788 49.5363 74.3941 48.9006 73.032C48.3104 71.67 47.5613 70.3987 46.6533 69.2183C45.7906 68.0379 44.7918 67.039 43.6568 66.2218C42.5217 65.45 41.4321 64.9505 40.3878 64.7235C39.389 64.4965 38.3675 64.4284 37.3232 64.5192C37.0054 65.8813 36.7103 67.1979 36.4379 68.4692C36.1655 69.7404 35.9385 70.9663 35.7569 72.1467C35.2575 74.78 34.7807 77.3452 34.3267 79.8423C33.9635 81.9761 33.5776 84.1781 33.169 86.4482C32.8058 88.7637 32.5334 90.7386 32.3518 92.3731C31.6253 92.7363 30.9443 93.0087 30.3087 93.1903C29.6731 93.4173 29.1055 93.5762 28.6061 93.667C28.0613 93.8032 27.5392 93.8713 27.0398 93.8713ZM54.0083 63.6339C52.4193 63.4523 50.8983 63.3615 49.4455 63.3615C48.038 63.3161 46.7895 63.2934 45.6998 63.2934C46.6079 63.7928 47.4024 64.4511 48.0834 65.2684C48.8098 66.0856 49.559 67.0163 50.3308 68.0606C51.0572 69.014 51.6474 70.0582 52.1014 71.1933C52.5555 72.3283 52.9414 73.4179 53.2592 74.4622C53.6224 72.5553 54.0083 70.6938 54.4169 68.8778C54.8255 67.0617 55.2115 65.3592 55.5747 63.7701C55.3023 63.7247 55.0298 63.702 54.7574 63.702C54.5304 63.6566 54.2807 63.6339 54.0083 63.6339ZM70.3529 89.7852C69.9443 89.5128 69.74 89.2177 69.74 88.8999C69.6946 88.5821 69.7627 88.2643 69.9443 87.9464C70.1259 87.5832 70.3983 87.22 70.7615 86.8568C71.1247 86.539 71.556 85.7218 72.0554 84.4051C72.5548 83.1339 73.077 81.5902 73.6218 79.7742C74.212 77.9127 74.7795 75.8923 75.3243 73.713C75.9146 71.5338 76.4594 69.3999 76.9588 67.3114C77.4582 65.223 77.8895 63.2934 78.2527 61.5227C78.616 59.7521 78.8884 58.3446 79.07 57.3004C79.297 56.0291 79.5467 54.6444 79.8191 53.1461C80.0461 51.8295 80.2958 50.3085 80.5682 48.5833C80.8406 46.8126 81.0903 44.8604 81.3174 42.7265L86.7655 40.2748C87.5374 39.9116 88.0822 40.0024 88.4 40.5472C88.7178 41.0466 88.7178 42.1136 88.4 43.748C88.2638 44.5652 88.0141 45.9046 87.6509 47.7661C87.2877 49.5821 86.8563 51.6025 86.3569 53.8272C85.9029 56.0064 85.4035 58.2538 84.8587 60.5693C84.3593 62.8394 83.8598 64.8597 83.3604 66.6304C82.9064 68.3103 82.3843 70.2398 81.7941 72.4191C80.7498 76.142 79.297 81.227 77.4355 87.674C78.0711 88.7637 79.2516 89.3085 80.9768 89.3085C82.8837 89.3085 85.0857 88.5821 87.5828 87.1292C90.1253 85.6764 92.5769 83.4971 94.9378 80.5914C97.2987 77.6857 99.3645 74.0536 101.135 69.695C102.951 65.2911 104.086 60.1607 104.54 54.3039C104.767 51.1258 104.608 48.3336 104.064 45.9273C103.519 43.521 102.679 41.5006 101.544 39.8662C100.454 38.2317 99.0921 37.0059 97.4576 36.1887C95.8686 35.3714 94.0979 34.9628 92.1456 34.9628C87.5601 34.9628 82.8156 36.8697 77.9122 40.6834L77.5717 35.0309C78.7522 33.7143 80.0915 32.7154 81.5898 32.0344C83.1334 31.308 84.5636 30.7632 85.8802 30.4C87.4239 29.9913 88.9902 29.7643 90.5793 29.7189C93.485 29.7189 96.2772 30.2864 98.9559 31.4215C101.68 32.5111 104.018 34.191 105.97 36.4611C107.968 38.7311 109.489 41.5914 110.533 45.042C111.577 48.4471 111.941 52.4424 111.623 57.028C111.441 59.6613 110.896 62.4081 109.988 65.2684C109.126 68.0833 107.968 70.8527 106.515 73.5768C105.108 76.3009 103.428 78.8888 101.476 81.3405C99.5234 83.7922 97.3895 85.9261 95.074 87.7421C92.7585 89.6036 90.2842 91.0564 87.6509 92.1007C85.0176 93.1903 82.2935 93.7351 79.4786 93.7351C78.616 93.6897 77.6852 93.5308 76.6864 93.2584C75.8238 93.0314 74.8476 92.6455 73.758 92.1007C72.6684 91.5559 71.5333 90.784 70.3529 89.7852Z" fill="white"/>
</g>
<defs>
<filter id="filter0_d_53_1543" x="0" y="0" width="129" height="129" filterUnits="userSpaceOnUse" color-interpolation-filters="sRGB">
<feFlood flood-opacity="0" result="BackgroundImageFix"/>
<feColorMatrix in="SourceAlpha" type="matrix" values="0 0 0 0 0 0 0 0 0 0 0 0 0 0 0 0 0 0 127 0" result="hardAlpha"/>
<feOffset dy="4"/>
<feGaussianBlur stdDeviation="2"/>
<feComposite in2="hardAlpha" operator="out"/>
<feColorMatrix type="matrix" values="0 0 0 0 0 0 0 0 0 0 0 0 0 0 0 0 0 0 0.5 0"/>
<feBlend mode="normal" in2="BackgroundImageFix" result="effect1_dropShadow_53_1543"/>
<feBlend mode="normal" in="SourceGraphic" in2="effect1_dropShadow_53_1543" result="shape"/>
</filter>
</defs>
</svg>
