<svg width="249" height="127" viewBox="0 0 249 127" fill="none" xmlns="http://www.w3.org/2000/svg">
<g filter="url(#filter0_d_5_572)">
<path d="M149.471 28.2351C149.471 29.9244 145.042 31.2939 143.353 31.2939C141.664 31.2939 131.118 29.9244 131.118 28.2351C131.118 26.5458 141.664 25.1763 143.353 25.1763C145.042 25.1763 149.471 26.5458 149.471 28.2351Z" fill="white"/>
<path d="M142.296 45.546C141.102 46.7406 137.002 44.5776 135.807 43.3831C134.613 42.1886 132.45 38.0889 133.645 36.8944C134.839 35.6998 138.939 37.8627 140.133 39.0573C141.328 40.2518 143.491 44.3515 142.296 45.546Z" fill="white"/>
<path d="M128.059 46.5882C128.059 48.2775 126.689 52.7058 125 52.7058C123.311 52.7058 121.941 48.2775 121.941 46.5882C121.941 44.8989 123.311 34.3529 125 34.3529C126.689 34.3529 128.059 44.8989 128.059 46.5882Z" fill="white"/>
<path d="M114.178 43.368C112.984 44.5625 108.884 46.7254 107.689 45.5309C106.495 44.3363 108.658 40.2367 109.852 39.0421C111.047 37.8476 115.146 35.6847 116.341 36.8792C117.536 38.0738 115.373 42.1734 114.178 43.368Z" fill="white"/>
<path d="M118.882 28.2351C118.882 29.9244 108.336 31.2939 106.647 31.2939C104.958 31.2939 100.529 29.9244 100.529 28.2351C100.529 26.5458 104.958 25.1763 106.647 25.1763C108.336 25.1763 118.882 26.5458 118.882 28.2351Z" fill="white"/>
<path d="M116.356 19.5751C115.161 20.7696 111.061 18.6067 109.867 17.4122C108.672 16.2176 106.509 12.118 107.704 10.9234C108.898 9.72887 112.998 11.8918 114.193 13.0863C115.387 14.2809 117.55 18.3805 116.356 19.5751Z" fill="white"/>
<path d="M128.059 9.88242C128.059 11.5718 126.689 22.1177 125 22.1177C123.311 22.1177 121.941 11.5718 121.941 9.88242C121.941 8.19308 123.311 3.76477 125 3.76477C126.689 3.76477 128.059 8.19308 128.059 9.88242Z" fill="white"/>
<path d="M140.147 17.4273C138.953 18.6218 134.853 20.7848 133.659 19.5902C132.464 18.3957 134.627 14.296 135.822 13.1015C137.016 11.9069 141.116 9.744 142.31 10.9385C143.505 12.1331 141.342 16.2327 140.147 17.4273Z" fill="white"/>
<path d="M6.26838 99.5993C5.38603 99.5993 4.85294 99.489 4.66912 99.2684C4.44853 99.0846 4.41176 98.6986 4.55882 98.1103C4.59559 97.9265 4.77941 97.0993 5.11029 95.6287C5.44118 94.1949 5.84559 92.4302 6.32353 90.3346C6.83824 88.2758 7.37132 86.0331 7.92279 83.6067C8.51103 81.1802 9.0625 78.9008 9.57721 76.7684C8.80515 76.842 8.23529 76.7868 7.86765 76.603C7.5 76.3824 7.31618 76.1067 7.31618 75.7758C7.35294 75.4081 7.55515 75.0405 7.92279 74.6728C8.32721 74.3052 8.89706 73.9927 9.63235 73.7353C9.77941 73.6618 10 73.5883 10.2941 73.5147C10.4779 72.8897 10.6434 72.2464 10.7904 71.5846C10.9375 71.0331 11.0846 70.4449 11.2316 69.8199C11.3787 69.1949 11.5257 68.5883 11.6728 68L15.5331 51.5111C15.7537 50.6655 16.0846 50.0405 16.5257 49.6361C17.0037 49.1949 17.8676 48.8272 19.1176 48.5331C20.1471 48.2758 20.864 48.1839 21.2684 48.2574C21.6728 48.2942 21.8566 48.4045 21.8199 48.5883C21.7096 48.9927 21.4338 49.967 20.9926 51.5111C20.5515 53.0552 20.0184 54.9486 19.3934 57.1912C18.8051 59.3971 18.1618 61.842 17.4632 64.5258C16.7647 67.1728 16.0846 69.8015 15.4228 72.4118C17.6287 72.0809 20.3125 71.8052 23.4743 71.5846C24.6875 71.4375 25.864 71.3456 27.0037 71.3089C28.1801 71.2721 29.3015 71.2721 30.3676 71.3089C30.8824 69.3236 31.3787 67.3383 31.8566 65.353C32.3713 63.3677 32.8493 61.5295 33.2904 59.8383C33.7316 58.1471 34.1176 56.6581 34.4485 55.3714C34.8162 54.0478 35.0919 53.0736 35.2757 52.4486C35.4963 51.75 35.6985 51.1802 35.8824 50.739C36.1029 50.2978 36.3419 49.9486 36.5993 49.6912C36.8934 49.4339 37.2243 49.25 37.5919 49.1397C37.9596 49.0295 38.3824 48.9375 38.8603 48.864C39.1176 48.864 39.4301 48.8456 39.7978 48.8089C40.0919 48.8089 40.4412 48.8089 40.8456 48.8089C41.25 48.7721 41.7096 48.7905 42.2243 48.864C40.8272 52.614 39.5221 56.4192 38.3088 60.2795C37.1324 64.103 36.0294 67.8346 35 71.4743C35.6618 71.5478 36.2316 71.603 36.7096 71.6397C37.2243 71.6765 37.6287 71.7317 37.9228 71.8052C38.8051 71.9522 39.3566 72.1912 39.5772 72.5221C39.8346 72.853 39.761 73.3309 39.3566 73.9559L38.6949 74.7831C38.4743 75.0772 38.1985 75.4265 37.8676 75.8309C37.5368 76.1986 37.114 76.6214 36.5993 77.0993C36.3051 76.989 35.9926 76.8787 35.6618 76.7684C35.3676 76.6581 35.0735 76.5478 34.7794 76.4375C34.4118 76.3272 34.0625 76.217 33.7316 76.1067C33.4743 76.989 33.2353 77.853 33.0147 78.6986C32.7941 79.5074 32.5919 80.3346 32.4081 81.1802C31.9669 82.9817 31.5441 84.8383 31.1397 86.75C30.8088 88.4045 30.4596 90.2243 30.0919 92.2096C29.761 94.2317 29.5037 96.217 29.3199 98.1655C29.0257 98.3125 28.7316 98.4045 28.4375 98.4412C28.1434 98.5147 27.886 98.5699 27.6654 98.6067C27.4081 98.6434 27.1507 98.6802 26.8934 98.717H26.8382H26.7279H26.6176C26.4706 98.717 26.3235 98.717 26.1765 98.717C26.0294 98.717 25.8824 98.6802 25.7353 98.6067C25.5515 98.5699 25.3676 98.5147 25.1838 98.4412C25 98.3677 24.8162 98.2942 24.6324 98.2206C24.4853 98.1839 24.3199 98.1103 24.136 98C24.4301 96.7868 24.6507 95.6471 24.7978 94.5809C24.9816 93.5147 25.1103 92.5772 25.1838 91.7684C25.2941 90.8125 25.3676 89.967 25.4044 89.2317C25.4412 88.2758 25.3309 87.228 25.0735 86.0883C24.8529 84.9486 24.4853 83.8272 23.9706 82.7243C23.4926 81.6214 22.886 80.592 22.1507 79.6361C21.4522 78.6802 20.6434 77.8714 19.7243 77.2096C18.8051 76.5846 17.9228 76.1802 17.0772 75.9964C16.2684 75.8125 15.4412 75.7574 14.5956 75.8309C14.3382 76.9339 14.0993 78 13.8787 79.0295C13.6581 80.0589 13.4743 81.0515 13.3272 82.0074C12.9228 84.1397 12.5368 86.217 12.1691 88.239C11.875 89.967 11.5625 91.75 11.2316 93.5883C10.9375 95.4633 10.7169 97.0625 10.5699 98.3861C9.98162 98.6802 9.43015 98.9008 8.91544 99.0478C8.40074 99.2317 7.94118 99.3603 7.53676 99.4339C7.09559 99.5442 6.67279 99.5993 6.26838 99.5993ZM28.1066 75.114C26.8199 74.967 25.5882 74.8934 24.4118 74.8934C23.2721 74.8567 22.261 74.8383 21.3787 74.8383C22.114 75.2427 22.7574 75.7758 23.3088 76.4375C23.8971 77.0993 24.5037 77.853 25.1287 78.6986C25.7169 79.4706 26.1949 80.3162 26.5625 81.2353C26.9301 82.1545 27.2426 83.0368 27.5 83.8824C27.7941 82.3383 28.1066 80.8309 28.4375 79.3603C28.7684 77.8897 29.0809 76.5111 29.375 75.2243C29.1544 75.1875 28.9338 75.1692 28.7132 75.1692C28.5294 75.1324 28.3272 75.114 28.1066 75.114ZM69.9632 78.2022C69.4485 78.9375 68.7868 79.8567 67.9779 80.9596C67.1691 82.0258 66.3235 83.1103 65.4412 84.2133C64.5956 85.2795 63.75 86.2721 62.9044 87.1912C62.0956 88.0736 61.4154 88.6986 60.864 89.0662C60.4963 89.2868 60.0735 89.4706 59.5956 89.6177C59.1176 89.7647 58.6213 89.8567 58.1066 89.8934C57.6287 89.9302 57.1691 89.8934 56.7279 89.7831C56.2868 89.7096 55.9007 89.5625 55.5699 89.342C55.239 89.0846 54.9632 88.717 54.7426 88.239C54.5588 87.8346 54.375 87.3015 54.1912 86.6397C54.0441 85.978 53.989 85.1508 54.0257 84.1581C53.1434 85.6287 52.1691 86.7684 51.1029 87.5772C50.0368 88.3493 49.0257 88.9192 48.0699 89.2868C46.9669 89.6912 45.864 89.9302 44.761 90.0037C44.2463 90.0037 43.6949 89.8199 43.1066 89.4522C42.5184 89.1214 42.0221 88.5883 41.6176 87.853C41.2132 87.0809 40.9559 86.1067 40.8456 84.9302C40.7353 83.717 40.8824 82.2831 41.2868 80.6287C41.8015 78.3861 42.6103 76.3456 43.7132 74.5074C44.8529 72.6692 46.0846 71.1067 47.4081 69.8199C48.7316 68.4964 50.0368 67.5037 51.3235 66.842C52.6103 66.1802 53.6765 65.8861 54.5221 65.9596C55.5147 66.1434 56.3235 66.4375 56.9485 66.842C57.4632 67.2096 57.7941 67.7611 57.9412 68.4964C58.125 69.1949 57.8309 70.1324 57.0588 71.3089C57.5735 71.1986 57.9963 71.125 58.3272 71.0883C58.6949 71.0515 58.9706 71.0331 59.1544 71.0331C59.375 71.0331 59.5221 71.0515 59.5956 71.0883C59.6324 71.1618 59.6507 71.3272 59.6507 71.5846C59.6507 71.8052 59.5956 72.228 59.4853 72.853C59.375 73.478 59.2096 74.3236 58.989 75.3897C58.7684 76.4559 58.4743 77.8346 58.1066 79.5258C58.0331 79.8567 57.9596 80.1692 57.886 80.4633C57.8493 80.7206 57.7941 80.9964 57.7206 81.2905C57.6838 81.5478 57.6287 81.8603 57.5551 82.228C57.4816 82.5956 57.3897 83.0552 57.2794 83.6067C57.2426 83.9375 57.2243 84.3052 57.2243 84.7096C57.261 85.0772 57.3346 85.4265 57.4449 85.7574C57.5551 86.0883 57.7206 86.364 57.9412 86.5846C58.1985 86.7684 58.5478 86.8603 58.989 86.8603C59.3566 86.8603 59.8346 86.6397 60.4228 86.1986C61.011 85.7206 61.636 85.1324 62.2978 84.4339C62.9596 83.6986 63.6397 82.9081 64.3382 82.0625C65.0735 81.1802 65.7537 80.3346 66.3787 79.5258C67.0037 78.717 67.5551 78 68.0331 77.375C68.5478 76.75 68.9154 76.2905 69.136 75.9964C69.4301 75.6655 69.7243 75.4817 70.0184 75.4449C70.3125 75.3714 70.5331 75.4449 70.6801 75.6655C70.8272 75.8861 70.8456 76.217 70.7353 76.6581C70.6618 77.0993 70.4044 77.614 69.9632 78.2022ZM53.8051 80.6287C53.989 79.8934 54.2096 79.0295 54.4669 78.0368C54.7243 77.0442 54.9449 76.0883 55.1287 75.1692C55.3125 74.25 55.4412 73.4964 55.5147 72.9081C55.625 72.2831 55.6066 71.989 55.4596 72.0258C55.2757 72.0625 55.0735 72.1177 54.8529 72.1912C54.6691 72.2647 54.4301 72.3199 54.136 72.3567C53.8419 72.3934 53.5478 72.4486 53.2537 72.5221C53.5478 71.9339 53.7132 71.4559 53.75 71.0883C53.8235 70.6839 53.8419 70.3714 53.8051 70.1508C53.7684 69.8934 53.6949 69.6912 53.5846 69.5442C53.1801 69.2133 52.4632 69.489 51.4338 70.3714C50.4412 71.217 49.2831 72.7978 47.9596 75.114C47.4081 76.0699 46.9669 77.0993 46.636 78.2022C46.3051 79.2684 46.0662 80.2795 45.9191 81.2353C45.8088 82.1912 45.7904 83.0368 45.864 83.7721C45.9375 84.4706 46.0846 84.9302 46.3051 85.1508C46.7096 85.5552 47.1691 85.7574 47.6838 85.7574C48.1985 85.7206 48.7132 85.5736 49.2279 85.3162C49.7794 85.0221 50.3125 84.6545 50.8272 84.2133C51.3787 83.7721 51.8566 83.3125 52.261 82.8346C52.7022 82.3567 53.0515 81.9155 53.3088 81.5111C53.6029 81.1067 53.7684 80.8125 53.8051 80.6287ZM73.1066 90.0589C71.7096 90.0589 70.5699 89.8383 69.6875 89.3971C68.8051 88.9559 68.1066 88.4228 67.5919 87.7978C67.114 87.1361 66.7647 86.4375 66.5441 85.7022C66.3603 84.9302 66.2684 84.2317 66.2684 83.6067C66.2684 82.5037 66.3603 81.3456 66.5441 80.1324C66.7279 78.8824 66.9485 77.7427 67.2059 76.7133C67.4632 75.6471 67.6838 74.7464 67.8676 74.0111C68.0882 73.2758 68.2353 72.8162 68.3088 72.6324C68.6397 71.5662 69.0625 70.6471 69.5772 69.875C70.1287 69.0662 70.8824 68.5147 71.8382 68.2206C72.2059 68.1471 72.5919 68.0736 72.9963 68C73.3272 67.9633 73.6581 67.9449 73.989 67.9449C74.3566 67.9449 74.6875 68 74.9816 68.1103C73.989 70.6471 73.1985 72.7611 72.6103 74.4522C72.0588 76.1434 71.636 77.5221 71.3419 78.5883C71.011 79.8015 70.8088 80.7758 70.7353 81.5111C70.5515 83.1655 70.6985 84.4155 71.1765 85.2611C71.6544 86.1067 72.6287 86.5295 74.0993 86.5295C75.0551 86.5295 75.9743 86.1802 76.8566 85.4817C77.739 84.7464 78.5478 83.8089 79.2831 82.6692C79.1728 82.0809 79.1176 81.4743 79.1176 80.8493C79.1176 79.6728 79.2096 78.5331 79.3934 77.4302C79.614 76.2905 79.8529 75.2427 80.1103 74.2868C80.4044 73.2942 80.6985 72.4118 80.9926 71.6397C81.3235 70.8677 81.5993 70.2611 81.8199 69.8199C82.2243 68.9375 82.5919 68.4045 82.9228 68.2206C83.2537 68 83.7868 67.8714 84.5221 67.8346C84.8162 67.7978 85.0551 67.7978 85.239 67.8346C85.4596 67.8346 85.6434 67.853 85.7904 67.8897C86.2316 68 86.4522 68.2206 86.4522 68.5515C86.4522 69.1397 86.4154 70.0221 86.3419 71.1986C86.2684 72.375 86.0478 73.5883 85.6801 74.8383C85.4228 75.8677 85.1654 76.75 84.9081 77.4853C84.6875 78.1839 84.4669 78.7905 84.2463 79.3052C84.0257 79.7831 83.8051 80.1875 83.5846 80.5184C83.364 80.8125 83.1618 81.0883 82.9779 81.3456C83.0515 82.4486 83.1434 83.3309 83.2537 83.9927C83.364 84.6545 83.4926 85.1692 83.6397 85.5368C83.8235 85.8677 84.0257 86.1067 84.2463 86.2537C84.5037 86.364 84.7794 86.4192 85.0735 86.4192C85.5882 86.4192 86.1949 86.1802 86.8934 85.7022C87.5919 85.1875 88.3088 84.5625 89.0441 83.8272C89.8162 83.0552 90.5699 82.228 91.3051 81.3456C92.0772 80.4265 92.7757 79.5625 93.4007 78.7537C94.0257 77.9449 94.5588 77.2464 95 76.6581C95.4412 76.0331 95.7169 75.6471 95.8272 75.5C96.0846 75.1692 96.3235 74.967 96.5441 74.8934C96.8015 74.8199 97.0037 74.8567 97.1507 75.0037C97.2978 75.114 97.3713 75.3162 97.3713 75.6103C97.4081 75.8677 97.3346 76.1618 97.1507 76.4927C96.4154 77.8897 95.4963 79.3787 94.3934 80.9596C93.3272 82.5037 92.1691 83.9375 90.9191 85.2611C89.7059 86.5846 88.4743 87.6875 87.2243 88.5699C85.9743 89.4522 84.7978 89.8934 83.6949 89.8934C82.7022 89.8934 81.9118 89.5625 81.3235 88.9008C80.7721 88.2022 80.2941 87.2096 79.8897 85.9228C79.0441 87.2464 78.0515 88.2758 76.9118 89.0111C75.7721 89.7096 74.5037 90.0589 73.1066 90.0589ZM107.298 97.0625C107.114 97.9449 106.875 99.0478 106.581 100.371C106.324 101.695 106.011 103.092 105.643 104.563C105.312 106.033 104.908 107.485 104.43 108.919C103.989 110.39 103.493 111.695 102.941 112.835C102.39 114.011 101.783 114.967 101.121 115.702C100.46 116.438 99.7243 116.805 98.9154 116.805C97.7022 116.805 96.6544 116.438 95.7721 115.702C94.9265 115.004 94.2096 114.103 93.6213 113C93.0331 111.934 92.6103 110.776 92.3529 109.526C92.0588 108.276 91.9118 107.118 91.9118 106.052C91.9118 104.581 92.0404 103.349 92.2978 102.357C92.5551 101.401 92.9963 100.482 93.6213 99.5993C94.2831 98.717 95.1654 97.7795 96.2684 96.7868C97.3713 95.7942 98.7868 94.5625 100.515 93.092C101.36 92.3567 102.169 91.6581 102.941 90.9964C103.713 90.3346 104.449 89.728 105.147 89.1765C105.331 88.4412 105.496 87.7611 105.643 87.1361C105.827 86.4743 105.974 85.8861 106.085 85.3714C105.129 86.6581 103.971 87.7427 102.61 88.625C101.287 89.5074 99.761 89.9486 98.0331 89.9486C96.4522 89.9486 95.1654 89.25 94.1728 87.853C93.2169 86.4192 92.739 84.3236 92.739 81.5662C92.739 80.2059 92.9963 78.6434 93.511 76.8787C94.0257 75.114 94.761 73.4596 95.7169 71.9155C96.6728 70.3714 97.8493 69.0662 99.2463 68C100.643 66.9339 102.206 66.4008 103.934 66.4008C104.743 66.4008 105.441 66.603 106.029 67.0074C106.618 67.4118 107.114 67.9265 107.518 68.5515C107.923 69.1397 108.235 69.7831 108.456 70.4817C108.676 71.1434 108.842 71.7684 108.952 72.3567C109.026 72.1361 109.081 71.9155 109.118 71.6949C109.154 71.4375 109.21 71.217 109.283 71.0331C109.651 69.7831 110.055 68.9375 110.496 68.4964C110.974 68.0184 111.673 67.7795 112.592 67.7795C113.107 67.7795 113.529 67.8714 113.86 68.0552C114.228 68.239 114.412 68.4045 114.412 68.5515C114.228 68.9559 114.081 69.2684 113.971 69.489C113.86 69.7096 113.75 69.9486 113.64 70.2059C113.529 70.4265 113.419 70.7206 113.309 71.0883C113.199 71.4559 113.051 71.989 112.868 72.6875C112.794 72.9449 112.647 73.5515 112.426 74.5074C112.243 75.4265 111.985 76.5295 111.654 77.8162C111.36 79.103 111.029 80.5184 110.662 82.0625C110.331 83.6067 110 85.114 109.669 86.5846C110.699 85.9964 111.765 85.2795 112.868 84.4339C113.971 83.5883 115.018 82.7243 116.011 81.842C117.004 80.9596 117.886 80.1324 118.658 79.3603C119.43 78.5515 120 77.8897 120.368 77.375C120.662 76.9339 120.993 76.6214 121.36 76.4375C121.728 76.2537 122.04 76.1986 122.298 76.2721C122.592 76.3089 122.757 76.4743 122.794 76.7684C122.868 77.0258 122.757 77.3934 122.463 77.8714C121.618 79.2317 120.588 80.5552 119.375 81.842C118.162 83.092 116.912 84.2684 115.625 85.3714C114.375 86.4375 113.143 87.3934 111.93 88.239C110.754 89.0478 109.743 89.7096 108.897 90.2243C108.529 91.8787 108.217 93.2206 107.96 94.25C107.702 95.2795 107.482 96.217 107.298 97.0625ZM100.349 86.1986C101.121 86.1986 101.838 85.9964 102.5 85.592C103.199 85.1875 103.824 84.728 104.375 84.2133C104.926 83.6618 105.386 83.1103 105.754 82.5589C106.121 82.0074 106.397 81.5662 106.581 81.2353C106.728 80.9045 106.893 80.4633 107.077 79.9118C107.298 79.3603 107.463 78.8272 107.574 78.3125C107.684 77.7978 107.721 77.3383 107.684 76.9339C107.684 76.5295 107.555 76.3089 107.298 76.2721C107.077 76.2353 106.893 76.0883 106.746 75.8309C106.636 75.5736 106.544 75.2795 106.471 74.9486C106.397 74.6177 106.342 74.2868 106.305 73.9559C106.305 73.625 106.287 73.3309 106.25 73.0736C106.066 71.7868 105.754 70.8493 105.312 70.2611C104.871 69.6728 104.375 69.3787 103.824 69.3787C102.904 69.3787 102.022 69.7464 101.176 70.4817C100.368 71.217 99.6324 72.1728 98.9706 73.3493C98.3456 74.489 97.8493 75.7574 97.4816 77.1545C97.114 78.5147 96.9301 79.8199 96.9301 81.0699C96.9301 82.614 97.1507 83.864 97.5919 84.8199C98.0331 85.739 98.9522 86.1986 100.349 86.1986ZM97.8125 111.787C98.5478 111.787 99.136 111.235 99.5772 110.132C100.055 109.066 100.551 107.596 101.066 105.721C101.176 105.279 101.324 104.636 101.507 103.79C101.728 102.982 101.967 102.044 102.224 100.978C102.518 99.9118 102.812 98.7537 103.107 97.5037C103.401 96.2905 103.713 95.0589 104.044 93.8089C103.75 94.0662 103.437 94.3236 103.107 94.5809C102.812 94.875 102.5 95.2059 102.169 95.5736C101.36 96.3456 100.57 97.0809 99.7978 97.7795C99.0625 98.5147 98.4007 99.2684 97.8125 100.04C97.2243 100.849 96.7463 101.713 96.3787 102.632C96.0478 103.552 95.8824 104.618 95.8824 105.831C95.8824 107.044 95.9191 108.037 95.9926 108.809C96.1029 109.581 96.2316 110.188 96.3787 110.629C96.5625 111.07 96.7647 111.364 96.9853 111.511C97.2426 111.695 97.5184 111.787 97.8125 111.787ZM143.695 77.7059C142.592 79.3236 141.342 80.9045 139.945 82.4486C138.548 83.9559 137.059 85.3162 135.478 86.5295C133.934 87.7059 132.335 88.6618 130.68 89.3971C129.062 90.1324 127.482 90.5 125.937 90.5C125.129 90.5 124.246 90.2978 123.29 89.8934C122.371 89.5258 121.526 88.9375 120.754 88.1287C119.982 87.3199 119.357 86.2721 118.879 84.9853C118.437 83.6986 118.309 82.1361 118.493 80.2978C118.64 78.7905 119.099 77.2096 119.871 75.5552C120.68 73.864 121.654 72.3199 122.794 70.9228C123.971 69.5258 125.276 68.3677 126.71 67.4486C128.18 66.5295 129.651 66.0699 131.121 66.0699C132.518 66.0699 133.529 66.4192 134.154 67.1177C134.779 67.8162 135.055 68.6802 134.982 69.7096C134.871 70.8493 134.54 71.8971 133.989 72.853C133.474 73.8089 132.849 74.6728 132.114 75.4449C131.379 76.217 130.588 76.9155 129.743 77.5405C128.934 78.1655 128.162 78.7353 127.426 79.25C126.618 79.8015 125.846 80.3346 125.11 80.8493C124.375 81.3272 123.732 81.7684 123.18 82.1728C123.217 83.092 123.382 83.864 123.676 84.489C123.971 85.114 124.338 85.6287 124.779 86.0331C125.221 86.4008 125.717 86.6765 126.268 86.8603C126.857 87.0074 127.445 87.0809 128.033 87.0809C129.283 87.0809 130.588 86.6949 131.949 85.9228C133.309 85.114 134.632 84.1581 135.919 83.0552C137.243 81.9155 138.456 80.739 139.559 79.5258C140.699 78.3125 141.636 77.2647 142.371 76.3824C142.629 76.0883 142.886 75.9228 143.143 75.8861C143.437 75.8125 143.658 75.8493 143.805 75.9964C143.989 76.1067 144.081 76.3272 144.081 76.6581C144.081 76.9522 143.952 77.3015 143.695 77.7059ZM129.577 69.2133C129.136 69.2133 128.603 69.4339 127.978 69.875C127.39 70.3162 126.801 70.9596 126.213 71.8052C125.625 72.614 125.074 73.625 124.559 74.8383C124.044 76.0147 123.658 77.375 123.401 78.9192C123.842 78.5883 124.32 78.2574 124.835 77.9265C125.349 77.5589 125.864 77.1728 126.379 76.7684C127.96 75.5552 129.062 74.489 129.687 73.5699C130.312 72.6508 130.662 71.8603 130.735 71.1986C130.809 70.5 130.735 70.0037 130.515 69.7096C130.294 69.3787 129.982 69.2133 129.577 69.2133ZM155.772 96.2905C155.441 96.0699 155.276 95.8309 155.276 95.5736C155.239 95.3162 155.294 95.0589 155.441 94.8015C155.588 94.5074 155.809 94.2133 156.103 93.9192C156.397 93.6618 156.746 93 157.151 91.9339C157.555 90.9045 157.978 89.6545 158.419 88.1839C158.897 86.6765 159.357 85.0405 159.798 83.2758C160.276 81.5111 160.717 79.7831 161.121 78.092C161.526 76.4008 161.875 74.8383 162.169 73.4045C162.463 71.9706 162.684 70.8309 162.831 69.9853C163.015 68.9559 163.217 67.8346 163.437 66.6214C163.621 65.5552 163.824 64.3236 164.044 62.9265C164.265 61.4927 164.467 59.9118 164.651 58.1839L169.062 56.1986C169.687 55.9045 170.129 55.978 170.386 56.4192C170.643 56.8236 170.643 57.6875 170.386 59.0111C170.276 59.6728 170.074 60.7574 169.779 62.2647C169.485 63.7353 169.136 65.3714 168.732 67.1728C168.364 68.9375 167.96 70.7574 167.518 72.6324C167.114 74.4706 166.71 76.1067 166.305 77.5405C165.937 78.9008 165.515 80.4633 165.037 82.228C164.191 85.2427 163.015 89.3603 161.507 94.5809C162.022 95.4633 162.978 95.9045 164.375 95.9045C165.919 95.9045 167.702 95.3162 169.724 94.1397C171.783 92.9633 173.768 91.1986 175.68 88.8456C177.592 86.4927 179.265 83.5515 180.699 80.0221C182.169 76.4559 183.088 72.3015 183.456 67.5589C183.64 64.9853 183.511 62.7243 183.07 60.7758C182.629 58.8272 181.949 57.1912 181.029 55.8677C180.147 54.5442 179.044 53.5515 177.721 52.8897C176.434 52.228 175 51.8971 173.419 51.8971C169.706 51.8971 165.864 53.4412 161.893 56.5295L161.618 51.9522C162.574 50.8861 163.658 50.0772 164.871 49.5258C166.121 48.9375 167.279 48.4964 168.346 48.2022C169.596 47.8714 170.864 47.6875 172.151 47.6508C174.504 47.6508 176.765 48.1103 178.934 49.0295C181.14 49.9118 183.033 51.2721 184.614 53.1103C186.232 54.9486 187.463 57.2647 188.309 60.0589C189.154 62.8162 189.449 66.0515 189.191 69.7647C189.044 71.8971 188.603 74.1214 187.868 76.4375C187.169 78.717 186.232 80.9596 185.055 83.1655C183.915 85.3714 182.555 87.467 180.974 89.4522C179.393 91.4375 177.665 93.1655 175.79 94.6361C173.915 96.1434 171.912 97.3199 169.779 98.1655C167.647 99.0478 165.441 99.489 163.162 99.489C162.463 99.4522 161.71 99.3236 160.901 99.103C160.202 98.9192 159.412 98.6067 158.529 98.1655C157.647 97.7243 156.728 97.0993 155.772 96.2905ZM216.268 77.7059C215.165 79.3236 213.915 80.9045 212.518 82.4486C211.121 83.9559 209.632 85.3162 208.051 86.5295C206.507 87.7059 204.908 88.6618 203.254 89.3971C201.636 90.1324 200.055 90.5 198.511 90.5C197.702 90.5 196.82 90.2978 195.864 89.8934C194.945 89.5258 194.099 88.9375 193.327 88.1287C192.555 87.3199 191.93 86.2721 191.452 84.9853C191.011 83.6986 190.882 82.1361 191.066 80.2978C191.213 78.7905 191.673 77.2096 192.445 75.5552C193.254 73.864 194.228 72.3199 195.368 70.9228C196.544 69.5258 197.849 68.3677 199.283 67.4486C200.754 66.5295 202.224 66.0699 203.695 66.0699C205.092 66.0699 206.103 66.4192 206.728 67.1177C207.353 67.8162 207.629 68.6802 207.555 69.7096C207.445 70.8493 207.114 71.8971 206.563 72.853C206.048 73.8089 205.423 74.6728 204.688 75.4449C203.952 76.217 203.162 76.9155 202.316 77.5405C201.507 78.1655 200.735 78.7353 200 79.25C199.191 79.8015 198.419 80.3346 197.684 80.8493C196.949 81.3272 196.305 81.7684 195.754 82.1728C195.79 83.092 195.956 83.864 196.25 84.489C196.544 85.114 196.912 85.6287 197.353 86.0331C197.794 86.4008 198.29 86.6765 198.842 86.8603C199.43 87.0074 200.018 87.0809 200.607 87.0809C201.857 87.0809 203.162 86.6949 204.522 85.9228C205.882 85.114 207.206 84.1581 208.493 83.0552C209.816 81.9155 211.029 80.739 212.132 79.5258C213.272 78.3125 214.21 77.2647 214.945 76.3824C215.202 76.0883 215.46 75.9228 215.717 75.8861C216.011 75.8125 216.232 75.8493 216.379 75.9964C216.563 76.1067 216.654 76.3272 216.654 76.6581C216.654 76.9522 216.526 77.3015 216.268 77.7059ZM202.151 69.2133C201.71 69.2133 201.176 69.4339 200.551 69.875C199.963 70.3162 199.375 70.9596 198.787 71.8052C198.199 72.614 197.647 73.625 197.132 74.8383C196.618 76.0147 196.232 77.375 195.974 78.9192C196.415 78.5883 196.893 78.2574 197.408 77.9265C197.923 77.5589 198.438 77.1728 198.952 76.7684C200.533 75.5552 201.636 74.489 202.261 73.5699C202.886 72.6508 203.235 71.8603 203.309 71.1986C203.382 70.5 203.309 70.0037 203.088 69.7096C202.868 69.3787 202.555 69.2133 202.151 69.2133ZM228.456 79.3603C227.5 80.7574 226.507 82.1177 225.478 83.4412C224.485 84.7647 223.511 85.9596 222.555 87.0258C221.636 88.0552 220.772 88.8824 219.963 89.5074C219.191 90.1692 218.566 90.5 218.088 90.5C216.949 90.5 216.011 89.967 215.276 88.9008C214.577 87.7978 214.026 86.4559 213.621 84.875C213.254 83.2574 213.015 81.5478 212.904 79.7464C212.831 77.9081 212.849 76.2721 212.96 74.8383C213.107 73.4045 213.272 72.2647 213.456 71.4192C213.64 70.5368 213.86 69.8567 214.118 69.3787C214.412 68.9008 214.743 68.5515 215.11 68.3309C215.515 68.1103 216.011 67.9265 216.599 67.7795C216.857 67.7059 217.151 67.6508 217.482 67.614C217.812 67.5772 218.107 67.5956 218.364 67.6692C218.658 67.7059 218.879 67.8162 219.026 68C219.173 68.1839 219.191 68.4596 219.081 68.8272C219.007 69.1581 218.879 69.6545 218.695 70.3162C218.548 70.9412 218.382 71.6581 218.199 72.467C218.015 73.2758 217.831 74.1214 217.647 75.0037C217.5 75.8861 217.39 76.7317 217.316 77.5405C217.206 78.9375 217.206 80.1692 217.316 81.2353C217.426 82.2647 217.592 83.1471 217.812 83.8824C218.033 84.5809 218.272 85.114 218.529 85.4817C218.787 85.8493 218.989 86.0331 219.136 86.0331C219.32 86.0331 219.651 85.7942 220.129 85.3162C220.643 84.8015 221.213 84.1397 221.838 83.3309C222.5 82.5221 223.18 81.5846 223.879 80.5184C224.614 79.4522 225.294 78.3493 225.919 77.2096C225.699 76.6214 225.607 75.9228 225.643 75.114C225.754 73.864 226.029 72.7427 226.471 71.75C226.912 70.7206 227.408 69.8567 227.96 69.1581C228.548 68.4596 229.136 67.9265 229.724 67.5589C230.349 67.1545 230.901 66.9522 231.379 66.9522C232.335 66.9522 232.923 67.2096 233.143 67.7243C233.401 68.2022 233.493 68.6986 233.419 69.2133C233.346 69.9853 232.996 71.0515 232.371 72.4118C231.783 73.7353 231.011 75.1875 230.055 76.7684C230.239 76.842 230.441 76.9155 230.662 76.989C230.882 77.0625 231.14 77.0993 231.434 77.0993C232.684 77.0993 233.805 76.9522 234.798 76.6581C235.827 76.364 236.71 76.0147 237.445 75.6103C238.217 75.2059 238.86 74.7831 239.375 74.342C239.926 73.864 240.368 73.478 240.699 73.1839C240.919 72.9633 241.14 72.853 241.36 72.853C241.581 72.853 241.765 72.9081 241.912 73.0184C242.059 73.1287 242.132 73.2942 242.132 73.5147C242.132 73.7353 242.022 73.9743 241.801 74.2317C240.478 75.8493 238.86 77.1545 236.949 78.1471C235.074 79.1397 232.868 79.6361 230.331 79.6361C230.11 79.6361 229.835 79.6177 229.504 79.5809C229.173 79.5442 228.824 79.4706 228.456 79.3603Z" fill="white"/>
<path d="M122.287 112.867H123.61C123.541 113.501 123.36 114.069 123.066 114.57C122.772 115.071 122.356 115.468 121.818 115.762C121.28 116.052 120.609 116.197 119.805 116.197C119.217 116.197 118.682 116.086 118.199 115.866C117.721 115.645 117.31 115.333 116.965 114.928C116.62 114.519 116.354 114.03 116.165 113.46C115.982 112.886 115.89 112.247 115.89 111.544V110.544C115.89 109.841 115.982 109.205 116.165 108.635C116.354 108.06 116.623 107.568 116.972 107.159C117.326 106.75 117.751 106.436 118.247 106.215C118.744 105.994 119.302 105.884 119.922 105.884C120.681 105.884 121.322 106.027 121.846 106.312C122.369 106.597 122.776 106.992 123.066 107.497C123.36 107.998 123.541 108.58 123.61 109.241H122.287C122.222 108.773 122.103 108.37 121.928 108.035C121.754 107.695 121.506 107.433 121.184 107.249C120.862 107.065 120.442 106.973 119.922 106.973C119.477 106.973 119.084 107.058 118.744 107.228C118.408 107.398 118.125 107.64 117.896 107.952C117.67 108.265 117.5 108.639 117.386 109.076C117.271 109.512 117.213 109.997 117.213 110.53V111.544C117.213 112.035 117.264 112.497 117.365 112.929C117.471 113.361 117.629 113.74 117.841 114.067C118.052 114.393 118.321 114.65 118.647 114.839C118.973 115.023 119.359 115.114 119.805 115.114C120.37 115.114 120.821 115.025 121.156 114.846C121.492 114.666 121.744 114.409 121.915 114.074C122.089 113.738 122.213 113.336 122.287 112.867ZM125.8 109.772V116.059H124.524V108.6H125.765L125.8 109.772ZM128.13 108.559L128.123 109.744C128.017 109.722 127.916 109.708 127.819 109.703C127.727 109.694 127.622 109.689 127.502 109.689C127.208 109.689 126.949 109.735 126.723 109.827C126.498 109.919 126.307 110.048 126.151 110.213C125.995 110.379 125.871 110.576 125.779 110.806C125.692 111.031 125.634 111.279 125.607 111.551L125.248 111.757C125.248 111.307 125.292 110.884 125.379 110.489C125.471 110.094 125.611 109.744 125.8 109.441C125.988 109.133 126.227 108.894 126.517 108.724C126.811 108.55 127.16 108.462 127.564 108.462C127.656 108.462 127.762 108.474 127.881 108.497C128.001 108.515 128.084 108.536 128.13 108.559ZM132.725 114.784V110.944C132.725 110.65 132.665 110.395 132.545 110.179C132.431 109.958 132.256 109.788 132.022 109.669C131.787 109.549 131.498 109.489 131.153 109.489C130.831 109.489 130.549 109.545 130.305 109.655C130.066 109.765 129.878 109.91 129.74 110.089C129.607 110.268 129.54 110.461 129.54 110.668H128.265C128.265 110.402 128.334 110.137 128.472 109.875C128.609 109.614 128.807 109.377 129.064 109.165C129.326 108.949 129.639 108.779 130.002 108.655C130.369 108.527 130.778 108.462 131.229 108.462C131.771 108.462 132.249 108.554 132.663 108.738C133.081 108.922 133.407 109.2 133.642 109.572C133.881 109.94 134 110.402 134 110.958V114.432C134 114.68 134.021 114.944 134.062 115.225C134.108 115.505 134.175 115.746 134.262 115.949V116.059H132.932C132.867 115.912 132.817 115.716 132.78 115.473C132.743 115.225 132.725 114.995 132.725 114.784ZM132.945 111.537L132.959 112.433H131.67C131.307 112.433 130.983 112.463 130.698 112.523C130.413 112.578 130.174 112.663 129.981 112.778C129.788 112.892 129.641 113.037 129.54 113.212C129.439 113.382 129.388 113.582 129.388 113.812C129.388 114.046 129.441 114.26 129.547 114.453C129.653 114.646 129.811 114.8 130.023 114.915C130.239 115.025 130.503 115.08 130.815 115.08C131.206 115.08 131.551 114.997 131.849 114.832C132.148 114.666 132.385 114.464 132.559 114.225C132.739 113.986 132.835 113.754 132.849 113.529L133.393 114.142C133.361 114.335 133.274 114.549 133.131 114.784C132.989 115.018 132.798 115.243 132.559 115.459C132.325 115.671 132.045 115.847 131.718 115.99C131.397 116.128 131.034 116.197 130.629 116.197C130.124 116.197 129.68 116.098 129.299 115.9C128.922 115.703 128.628 115.438 128.416 115.108C128.21 114.772 128.106 114.398 128.106 113.984C128.106 113.584 128.184 113.233 128.341 112.929C128.497 112.621 128.722 112.366 129.016 112.164C129.31 111.957 129.664 111.801 130.078 111.695C130.491 111.59 130.953 111.537 131.463 111.537H132.945ZM137.203 116.059H135.927V107.814C135.927 107.277 136.024 106.824 136.217 106.456C136.415 106.084 136.697 105.804 137.065 105.615C137.432 105.422 137.869 105.326 138.375 105.326C138.522 105.326 138.669 105.335 138.816 105.353C138.967 105.372 139.114 105.399 139.257 105.436L139.188 106.477C139.091 106.454 138.981 106.438 138.857 106.429C138.738 106.42 138.618 106.415 138.499 106.415C138.227 106.415 137.993 106.47 137.795 106.58C137.602 106.686 137.455 106.842 137.354 107.049C137.253 107.256 137.203 107.511 137.203 107.814V116.059ZM138.788 108.6V109.579H134.749V108.6H138.788ZM142.625 108.6V109.579H138.592V108.6H142.625ZM139.957 106.787H141.233V114.211C141.233 114.464 141.272 114.655 141.35 114.784C141.428 114.912 141.529 114.997 141.653 115.039C141.777 115.08 141.91 115.101 142.053 115.101C142.159 115.101 142.269 115.091 142.384 115.073C142.503 115.05 142.593 115.032 142.653 115.018L142.659 116.059C142.558 116.091 142.425 116.121 142.26 116.148C142.099 116.181 141.903 116.197 141.674 116.197C141.361 116.197 141.074 116.135 140.812 116.011C140.55 115.887 140.341 115.68 140.185 115.39C140.033 115.096 139.957 114.701 139.957 114.205V106.787ZM144.801 108.6V116.059H143.518V108.6H144.801ZM143.422 106.622C143.422 106.415 143.484 106.24 143.608 106.098C143.737 105.955 143.925 105.884 144.173 105.884C144.417 105.884 144.603 105.955 144.732 106.098C144.865 106.24 144.932 106.415 144.932 106.622C144.932 106.819 144.865 106.989 144.732 107.132C144.603 107.27 144.417 107.339 144.173 107.339C143.925 107.339 143.737 107.27 143.608 107.132C143.484 106.989 143.422 106.819 143.422 106.622ZM147.417 110.193V116.059H146.142V108.6H147.348L147.417 110.193ZM147.114 112.047L146.583 112.026C146.588 111.516 146.664 111.045 146.811 110.613C146.958 110.176 147.165 109.797 147.431 109.476C147.698 109.154 148.015 108.906 148.382 108.731C148.755 108.552 149.166 108.462 149.616 108.462C149.984 108.462 150.315 108.513 150.609 108.614C150.903 108.71 151.153 108.867 151.36 109.083C151.572 109.299 151.733 109.579 151.843 109.924C151.953 110.264 152.008 110.68 152.008 111.171V116.059H150.726V111.158C150.726 110.767 150.669 110.455 150.554 110.22C150.439 109.981 150.271 109.809 150.051 109.703C149.83 109.593 149.559 109.538 149.237 109.538C148.92 109.538 148.631 109.604 148.369 109.738C148.111 109.871 147.888 110.055 147.7 110.289C147.516 110.523 147.371 110.792 147.266 111.096C147.165 111.394 147.114 111.711 147.114 112.047ZM158.072 108.6H159.23V115.9C159.23 116.557 159.097 117.118 158.83 117.582C158.563 118.046 158.191 118.398 157.713 118.637C157.24 118.881 156.693 119.002 156.073 119.002C155.815 119.002 155.512 118.961 155.163 118.878C154.818 118.8 154.478 118.665 154.142 118.472C153.812 118.283 153.534 118.028 153.308 117.706L153.977 116.948C154.29 117.325 154.616 117.587 154.956 117.734C155.301 117.881 155.641 117.955 155.976 117.955C156.381 117.955 156.73 117.879 157.024 117.727C157.318 117.575 157.545 117.35 157.706 117.051C157.872 116.757 157.954 116.394 157.954 115.962V110.241L158.072 108.6ZM152.936 112.412V112.267C152.936 111.698 153.003 111.181 153.136 110.716C153.274 110.248 153.469 109.846 153.722 109.51C153.979 109.175 154.29 108.917 154.653 108.738C155.016 108.554 155.425 108.462 155.88 108.462C156.348 108.462 156.757 108.545 157.107 108.71C157.46 108.871 157.759 109.108 158.003 109.421C158.251 109.728 158.446 110.101 158.589 110.537C158.731 110.974 158.83 111.468 158.885 112.019V112.654C158.835 113.2 158.736 113.692 158.589 114.129C158.446 114.565 158.251 114.938 158.003 115.245C157.759 115.553 157.46 115.79 157.107 115.955C156.753 116.116 156.339 116.197 155.866 116.197C155.42 116.197 155.016 116.102 154.653 115.914C154.294 115.726 153.986 115.461 153.729 115.121C153.472 114.781 153.274 114.381 153.136 113.922C153.003 113.458 152.936 112.955 152.936 112.412ZM154.211 112.267V112.412C154.211 112.784 154.248 113.134 154.322 113.46C154.4 113.786 154.517 114.074 154.673 114.322C154.834 114.57 155.039 114.765 155.287 114.908C155.535 115.046 155.831 115.114 156.176 115.114C156.599 115.114 156.948 115.025 157.224 114.846C157.5 114.666 157.718 114.43 157.879 114.136C158.044 113.841 158.173 113.522 158.265 113.177V111.516C158.214 111.263 158.136 111.02 158.03 110.785C157.929 110.546 157.796 110.335 157.631 110.151C157.47 109.963 157.27 109.813 157.031 109.703C156.792 109.593 156.511 109.538 156.19 109.538C155.841 109.538 155.54 109.611 155.287 109.758C155.039 109.901 154.834 110.098 154.673 110.351C154.517 110.599 154.4 110.889 154.322 111.22C154.248 111.546 154.211 111.895 154.211 112.267ZM166.166 116.059H164.07L164.084 114.977H166.166C166.883 114.977 167.48 114.827 167.958 114.529C168.436 114.225 168.795 113.802 169.034 113.26C169.277 112.713 169.399 112.074 169.399 111.344V110.73C169.399 110.156 169.33 109.646 169.192 109.2C169.054 108.75 168.852 108.37 168.585 108.063C168.319 107.75 167.993 107.513 167.607 107.352C167.225 107.192 166.786 107.111 166.29 107.111H164.029V106.022H166.29C166.947 106.022 167.547 106.132 168.089 106.353C168.631 106.569 169.098 106.884 169.489 107.297C169.884 107.706 170.187 108.203 170.398 108.786C170.61 109.365 170.716 110.018 170.716 110.744V111.344C170.716 112.07 170.61 112.725 170.398 113.308C170.187 113.887 169.881 114.381 169.482 114.79C169.086 115.199 168.608 115.514 168.048 115.735C167.492 115.951 166.864 116.059 166.166 116.059ZM164.78 106.022V116.059H163.45V106.022H164.78ZM173.201 108.6V116.059H171.919V108.6H173.201ZM171.823 106.622C171.823 106.415 171.885 106.24 172.009 106.098C172.137 105.955 172.326 105.884 172.574 105.884C172.818 105.884 173.004 105.955 173.132 106.098C173.266 106.24 173.332 106.415 173.332 106.622C173.332 106.819 173.266 106.989 173.132 107.132C173.004 107.27 172.818 107.339 172.574 107.339C172.326 107.339 172.137 107.27 172.009 107.132C171.885 106.989 171.823 106.819 171.823 106.622ZM179.375 108.6H180.533V115.9C180.533 116.557 180.4 117.118 180.133 117.582C179.867 118.046 179.494 118.398 179.017 118.637C178.543 118.881 177.996 119.002 177.376 119.002C177.119 119.002 176.815 118.961 176.466 118.878C176.121 118.8 175.781 118.665 175.446 118.472C175.115 118.283 174.837 118.028 174.612 117.706L175.28 116.948C175.593 117.325 175.919 117.587 176.259 117.734C176.604 117.881 176.944 117.955 177.279 117.955C177.684 117.955 178.033 117.879 178.327 117.727C178.621 117.575 178.849 117.35 179.01 117.051C179.175 116.757 179.258 116.394 179.258 115.962V110.241L179.375 108.6ZM174.239 112.412V112.267C174.239 111.698 174.306 111.181 174.439 110.716C174.577 110.248 174.773 109.846 175.025 109.51C175.283 109.175 175.593 108.917 175.956 108.738C176.319 108.554 176.728 108.462 177.183 108.462C177.652 108.462 178.061 108.545 178.41 108.71C178.764 108.871 179.062 109.108 179.306 109.421C179.554 109.728 179.75 110.101 179.892 110.537C180.034 110.974 180.133 111.468 180.188 112.019V112.654C180.138 113.2 180.039 113.692 179.892 114.129C179.75 114.565 179.554 114.938 179.306 115.245C179.062 115.553 178.764 115.79 178.41 115.955C178.056 116.116 177.642 116.197 177.169 116.197C176.723 116.197 176.319 116.102 175.956 115.914C175.597 115.726 175.29 115.461 175.032 115.121C174.775 114.781 174.577 114.381 174.439 113.922C174.306 113.458 174.239 112.955 174.239 112.412ZM175.515 112.267V112.412C175.515 112.784 175.551 113.134 175.625 113.46C175.703 113.786 175.82 114.074 175.977 114.322C176.137 114.57 176.342 114.765 176.59 114.908C176.838 115.046 177.135 115.114 177.479 115.114C177.902 115.114 178.251 115.025 178.527 114.846C178.803 114.666 179.021 114.43 179.182 114.136C179.347 113.841 179.476 113.522 179.568 113.177V111.516C179.517 111.263 179.439 111.02 179.334 110.785C179.233 110.546 179.099 110.335 178.934 110.151C178.773 109.963 178.573 109.813 178.334 109.703C178.095 109.593 177.815 109.538 177.493 109.538C177.144 109.538 176.843 109.611 176.59 109.758C176.342 109.901 176.137 110.098 175.977 110.351C175.82 110.599 175.703 110.889 175.625 111.22C175.551 111.546 175.515 111.895 175.515 112.267ZM183.15 108.6V116.059H181.868V108.6H183.15ZM181.771 106.622C181.771 106.415 181.833 106.24 181.957 106.098C182.086 105.955 182.274 105.884 182.523 105.884C182.766 105.884 182.952 105.955 183.081 106.098C183.214 106.24 183.281 106.415 183.281 106.622C183.281 106.819 183.214 106.989 183.081 107.132C182.952 107.27 182.766 107.339 182.523 107.339C182.274 107.339 182.086 107.27 181.957 107.132C181.833 106.989 181.771 106.819 181.771 106.622ZM187.614 108.6V109.579H183.581V108.6H187.614ZM184.946 106.787H186.222V114.211C186.222 114.464 186.261 114.655 186.339 114.784C186.417 114.912 186.518 114.997 186.642 115.039C186.766 115.08 186.899 115.101 187.042 115.101C187.148 115.101 187.258 115.091 187.373 115.073C187.492 115.05 187.582 115.032 187.642 115.018L187.648 116.059C187.547 116.091 187.414 116.121 187.249 116.148C187.088 116.181 186.892 116.197 186.663 116.197C186.35 116.197 186.063 116.135 185.801 116.011C185.539 115.887 185.33 115.68 185.174 115.39C185.022 115.096 184.946 114.701 184.946 114.205V106.787ZM192.802 114.784V110.944C192.802 110.65 192.742 110.395 192.623 110.179C192.508 109.958 192.333 109.788 192.099 109.669C191.864 109.549 191.575 109.489 191.23 109.489C190.909 109.489 190.626 109.545 190.382 109.655C190.143 109.765 189.955 109.91 189.817 110.089C189.684 110.268 189.617 110.461 189.617 110.668H188.342C188.342 110.402 188.411 110.137 188.549 109.875C188.687 109.614 188.884 109.377 189.142 109.165C189.403 108.949 189.716 108.779 190.079 108.655C190.447 108.527 190.856 108.462 191.306 108.462C191.848 108.462 192.326 108.554 192.74 108.738C193.158 108.922 193.484 109.2 193.719 109.572C193.958 109.94 194.077 110.402 194.077 110.958V114.432C194.077 114.68 194.098 114.944 194.139 115.225C194.185 115.505 194.252 115.746 194.339 115.949V116.059H193.009C192.944 115.912 192.894 115.716 192.857 115.473C192.82 115.225 192.802 114.995 192.802 114.784ZM193.023 111.537L193.036 112.433H191.747C191.384 112.433 191.06 112.463 190.775 112.523C190.49 112.578 190.251 112.663 190.058 112.778C189.865 112.892 189.718 113.037 189.617 113.212C189.516 113.382 189.466 113.582 189.466 113.812C189.466 114.046 189.518 114.26 189.624 114.453C189.73 114.646 189.888 114.8 190.1 114.915C190.316 115.025 190.58 115.08 190.892 115.08C191.283 115.08 191.628 114.997 191.926 114.832C192.225 114.666 192.462 114.464 192.636 114.225C192.816 113.986 192.912 113.754 192.926 113.529L193.471 114.142C193.438 114.335 193.351 114.549 193.209 114.784C193.066 115.018 192.875 115.243 192.636 115.459C192.402 115.671 192.122 115.847 191.795 115.99C191.474 116.128 191.111 116.197 190.706 116.197C190.201 116.197 189.757 116.098 189.376 115.9C188.999 115.703 188.705 115.438 188.494 115.108C188.287 114.772 188.183 114.398 188.183 113.984C188.183 113.584 188.261 113.233 188.418 112.929C188.574 112.621 188.799 112.366 189.093 112.164C189.387 111.957 189.741 111.801 190.155 111.695C190.568 111.59 191.03 111.537 191.54 111.537H193.023ZM196.763 105.471V116.059H195.481V105.471H196.763ZM203.809 116.059H201.714L201.727 114.977H203.809C204.526 114.977 205.124 114.827 205.602 114.529C206.079 114.225 206.438 113.802 206.677 113.26C206.92 112.713 207.042 112.074 207.042 111.344V110.73C207.042 110.156 206.973 109.646 206.835 109.2C206.698 108.75 206.495 108.37 206.229 108.063C205.962 107.75 205.636 107.513 205.25 107.352C204.869 107.192 204.43 107.111 203.933 107.111H201.672V106.022H203.933C204.591 106.022 205.19 106.132 205.733 106.353C206.275 106.569 206.741 106.884 207.132 107.297C207.527 107.706 207.83 108.203 208.042 108.786C208.253 109.365 208.359 110.018 208.359 110.744V111.344C208.359 112.07 208.253 112.725 208.042 113.308C207.83 113.887 207.525 114.381 207.125 114.79C206.73 115.199 206.252 115.514 205.691 115.735C205.135 115.951 204.508 116.059 203.809 116.059ZM202.424 106.022V116.059H201.093V106.022H202.424ZM210.734 109.772V116.059H209.459V108.6H210.7L210.734 109.772ZM213.064 108.559L213.057 109.744C212.952 109.722 212.851 109.708 212.754 109.703C212.662 109.694 212.557 109.689 212.437 109.689C212.143 109.689 211.883 109.735 211.658 109.827C211.433 109.919 211.242 110.048 211.086 110.213C210.93 110.379 210.806 110.576 210.714 110.806C210.626 111.031 210.569 111.279 210.541 111.551L210.183 111.757C210.183 111.307 210.227 110.884 210.314 110.489C210.406 110.094 210.546 109.744 210.734 109.441C210.923 109.133 211.162 108.894 211.451 108.724C211.745 108.55 212.095 108.462 212.499 108.462C212.591 108.462 212.697 108.474 212.816 108.497C212.936 108.515 213.018 108.536 213.064 108.559ZM216.494 116.197C215.975 116.197 215.504 116.109 215.081 115.935C214.663 115.756 214.302 115.505 213.999 115.183C213.7 114.862 213.471 114.48 213.31 114.039C213.149 113.598 213.068 113.115 213.068 112.591V112.302C213.068 111.695 213.158 111.155 213.337 110.682C213.517 110.204 213.76 109.8 214.068 109.469C214.376 109.138 214.725 108.887 215.116 108.717C215.506 108.547 215.911 108.462 216.329 108.462C216.862 108.462 217.322 108.554 217.708 108.738C218.098 108.922 218.418 109.179 218.666 109.51C218.914 109.836 219.098 110.222 219.217 110.668C219.337 111.109 219.397 111.592 219.397 112.116V112.688H213.827V111.647H218.121V111.551C218.103 111.22 218.034 110.898 217.915 110.585C217.8 110.273 217.616 110.016 217.363 109.813C217.11 109.611 216.766 109.51 216.329 109.51C216.04 109.51 215.773 109.572 215.529 109.696C215.286 109.816 215.077 109.995 214.902 110.234C214.727 110.473 214.592 110.765 214.495 111.109C214.399 111.454 214.351 111.852 214.351 112.302V112.591C214.351 112.945 214.399 113.279 214.495 113.591C214.597 113.899 214.741 114.17 214.93 114.404C215.123 114.639 215.355 114.823 215.626 114.956C215.902 115.089 216.214 115.156 216.563 115.156C217.014 115.156 217.395 115.064 217.708 114.88C218.02 114.696 218.294 114.45 218.528 114.142L219.3 114.756C219.139 115 218.935 115.232 218.687 115.452C218.438 115.673 218.133 115.852 217.77 115.99C217.411 116.128 216.986 116.197 216.494 116.197ZM224.578 114.784V110.944C224.578 110.65 224.518 110.395 224.398 110.179C224.284 109.958 224.109 109.788 223.875 109.669C223.64 109.549 223.351 109.489 223.006 109.489C222.684 109.489 222.402 109.545 222.158 109.655C221.919 109.765 221.731 109.91 221.593 110.089C221.46 110.268 221.393 110.461 221.393 110.668H220.118C220.118 110.402 220.187 110.137 220.324 109.875C220.462 109.614 220.66 109.377 220.917 109.165C221.179 108.949 221.492 108.779 221.855 108.655C222.222 108.527 222.631 108.462 223.082 108.462C223.624 108.462 224.102 108.554 224.516 108.738C224.934 108.922 225.26 109.2 225.494 109.572C225.733 109.94 225.853 110.402 225.853 110.958V114.432C225.853 114.68 225.874 114.944 225.915 115.225C225.961 115.505 226.028 115.746 226.115 115.949V116.059H224.784C224.72 115.912 224.67 115.716 224.633 115.473C224.596 115.225 224.578 114.995 224.578 114.784ZM224.798 111.537L224.812 112.433H223.523C223.16 112.433 222.836 112.463 222.551 112.523C222.266 112.578 222.027 112.663 221.834 112.778C221.641 112.892 221.494 113.037 221.393 113.212C221.292 113.382 221.241 113.582 221.241 113.812C221.241 114.046 221.294 114.26 221.4 114.453C221.506 114.646 221.664 114.8 221.875 114.915C222.091 115.025 222.356 115.08 222.668 115.08C223.059 115.08 223.403 114.997 223.702 114.832C224.001 114.666 224.238 114.464 224.412 114.225C224.591 113.986 224.688 113.754 224.702 113.529L225.246 114.142C225.214 114.335 225.127 114.549 224.984 114.784C224.842 115.018 224.651 115.243 224.412 115.459C224.178 115.671 223.898 115.847 223.571 115.99C223.25 116.128 222.886 116.197 222.482 116.197C221.977 116.197 221.533 116.098 221.152 115.9C220.775 115.703 220.481 115.438 220.269 115.108C220.062 114.772 219.959 114.398 219.959 113.984C219.959 113.584 220.037 113.233 220.193 112.929C220.35 112.621 220.575 112.366 220.869 112.164C221.163 111.957 221.517 111.801 221.931 111.695C222.344 111.59 222.806 111.537 223.316 111.537H224.798ZM228.421 110.082V116.059H227.139V108.6H228.352L228.421 110.082ZM228.159 112.047L227.567 112.026C227.571 111.516 227.638 111.045 227.767 110.613C227.895 110.176 228.086 109.797 228.339 109.476C228.591 109.154 228.906 108.906 229.283 108.731C229.66 108.552 230.097 108.462 230.593 108.462C230.942 108.462 231.264 108.513 231.558 108.614C231.852 108.71 232.107 108.864 232.323 109.076C232.539 109.287 232.707 109.558 232.826 109.889C232.946 110.22 233.006 110.62 233.006 111.089V116.059H231.73V111.151C231.73 110.76 231.664 110.448 231.53 110.213C231.402 109.979 231.218 109.809 230.979 109.703C230.74 109.593 230.46 109.538 230.138 109.538C229.761 109.538 229.446 109.604 229.193 109.738C228.941 109.871 228.739 110.055 228.587 110.289C228.435 110.523 228.325 110.792 228.256 111.096C228.192 111.394 228.159 111.711 228.159 112.047ZM232.992 111.344L232.137 111.606C232.142 111.197 232.208 110.804 232.337 110.427C232.47 110.05 232.661 109.715 232.909 109.421C233.162 109.126 233.472 108.894 233.84 108.724C234.207 108.55 234.628 108.462 235.101 108.462C235.501 108.462 235.855 108.515 236.163 108.621C236.475 108.727 236.737 108.89 236.949 109.11C237.165 109.326 237.328 109.604 237.438 109.944C237.548 110.284 237.603 110.689 237.603 111.158V116.059H236.321V111.144C236.321 110.726 236.255 110.402 236.121 110.172C235.993 109.938 235.809 109.774 235.57 109.682C235.335 109.586 235.055 109.538 234.729 109.538C234.449 109.538 234.2 109.586 233.984 109.682C233.768 109.779 233.587 109.912 233.44 110.082C233.293 110.248 233.18 110.438 233.102 110.654C233.028 110.87 232.992 111.1 232.992 111.344ZM243.17 114.08C243.17 113.897 243.129 113.727 243.046 113.57C242.968 113.409 242.805 113.265 242.557 113.136C242.313 113.003 241.946 112.888 241.454 112.791C241.04 112.704 240.666 112.601 240.33 112.481C240 112.362 239.717 112.217 239.483 112.047C239.253 111.877 239.076 111.677 238.952 111.447C238.828 111.217 238.766 110.949 238.766 110.641C238.766 110.347 238.83 110.068 238.959 109.807C239.092 109.545 239.278 109.313 239.517 109.11C239.761 108.908 240.052 108.75 240.392 108.635C240.733 108.52 241.112 108.462 241.53 108.462C242.127 108.462 242.637 108.568 243.06 108.779C243.483 108.991 243.807 109.273 244.032 109.627C244.257 109.977 244.37 110.365 244.37 110.792H243.095C243.095 110.585 243.033 110.386 242.909 110.193C242.789 109.995 242.612 109.832 242.378 109.703C242.148 109.574 241.865 109.51 241.53 109.51C241.176 109.51 240.889 109.565 240.668 109.676C240.452 109.781 240.294 109.917 240.193 110.082C240.096 110.248 240.048 110.422 240.048 110.606C240.048 110.744 240.071 110.868 240.117 110.978C240.167 111.084 240.255 111.183 240.379 111.275C240.503 111.362 240.677 111.445 240.903 111.523C241.128 111.601 241.415 111.679 241.764 111.757C242.375 111.895 242.879 112.061 243.274 112.254C243.669 112.447 243.963 112.683 244.156 112.964C244.349 113.244 244.446 113.584 244.446 113.984C244.446 114.31 244.377 114.609 244.239 114.88C244.106 115.151 243.91 115.386 243.653 115.583C243.4 115.776 243.097 115.928 242.743 116.038C242.394 116.144 242.001 116.197 241.564 116.197C240.907 116.197 240.351 116.08 239.896 115.845C239.441 115.611 239.097 115.307 238.862 114.935C238.628 114.563 238.511 114.17 238.511 113.756H239.793C239.811 114.106 239.912 114.384 240.096 114.591C240.28 114.793 240.505 114.938 240.772 115.025C241.038 115.108 241.302 115.149 241.564 115.149C241.914 115.149 242.205 115.103 242.44 115.011C242.679 114.919 242.86 114.793 242.984 114.632C243.108 114.471 243.17 114.287 243.17 114.08Z" fill="white"/>
</g>
<defs>
<filter id="filter0_d_5_572" x="0.338242" y="0" width="250.074" height="128" filterUnits="userSpaceOnUse" color-interpolation-filters="sRGB">
<feFlood flood-opacity="0" result="BackgroundImageFix"/>
<feColorMatrix in="SourceAlpha" type="matrix" values="0 0 0 0 0 0 0 0 0 0 0 0 0 0 0 0 0 0 127 0" result="hardAlpha"/>
<feOffset dy="4"/>
<feGaussianBlur stdDeviation="2"/>
<feComposite in2="hardAlpha" operator="out"/>
<feColorMatrix type="matrix" values="0 0 0 0 0.0941176 0 0 0 0 0.0941176 0 0 0 0 0.0941176 0 0 0 0.5 0"/>
<feBlend mode="normal" in2="BackgroundImageFix" result="effect1_dropShadow_5_572"/>
<feBlend mode="normal" in="SourceGraphic" in2="effect1_dropShadow_5_572" result="shape"/>
</filter>
</defs>
</svg>
