<svg width="100" height="103" viewBox="0 0 100 103" fill="none" xmlns="http://www.w3.org/2000/svg">
<path d="M93.3335 52.9997C93.3335 55.9912 85.4917 58.4163 82.5002 58.4163C79.5086 58.4163 60.8335 55.9912 60.8335 52.9997C60.8335 50.0081 79.5086 47.583 82.5002 47.583C85.4917 47.583 93.3335 50.0081 93.3335 52.9997Z" fill="#3A0035"/>
<path d="M80.6287 83.6543C78.5134 85.7697 71.2536 81.9395 69.1382 79.8242C67.0229 77.7088 63.1927 70.449 65.3081 68.3337C67.4234 66.2184 74.6832 70.0485 76.7986 72.1639C78.9139 74.2792 82.7441 81.539 80.6287 83.6543Z" fill="#3A0035"/>
<path d="M55.4168 85.4999C55.4168 88.4915 52.9917 96.3333 50.0001 96.3333C47.0086 96.3333 44.5835 88.4915 44.5835 85.4999C44.5835 82.5084 47.0086 63.8333 50.0001 63.8333C52.9917 63.8333 55.4168 82.5084 55.4168 85.4999Z" fill="#3A0035"/>
<path d="M30.8362 79.7976C28.7209 81.9129 21.4611 85.7431 19.3457 83.6277C17.2304 81.5124 21.0606 74.2526 23.1759 72.1373C25.2912 70.0219 32.551 66.1918 34.6664 68.3071C36.7817 70.4224 32.9516 77.6822 30.8362 79.7976Z" fill="#3A0035"/>
<path d="M39.1666 52.9997C39.1666 55.9912 20.4915 58.4163 17.4999 58.4163C14.5084 58.4163 6.66661 55.9912 6.66661 52.9997C6.66661 50.0081 14.5084 47.583 17.4999 47.583C20.4915 47.583 39.1666 50.0081 39.1666 52.9997Z" fill="#3A0035"/>
<path d="M34.6921 37.6642C32.5768 39.7796 25.317 35.9494 23.2016 33.8341C21.0863 31.7187 17.2561 24.4589 19.3715 22.3436C21.4868 20.2282 28.7466 24.0584 30.862 26.1738C32.9773 28.2891 36.8075 35.5489 34.6921 37.6642Z" fill="#3A0035"/>
<path d="M55.4168 20.5002C55.4168 23.4917 52.9917 42.1669 50.0001 42.1669C47.0086 42.1669 44.5835 23.4917 44.5835 20.5002C44.5835 17.5087 47.0086 9.66687 50.0001 9.66687C52.9917 9.66687 55.4168 17.5087 55.4168 20.5002Z" fill="#3A0035"/>
<path d="M76.8235 33.8607C74.7081 35.976 67.4483 39.8062 65.333 37.6908C63.2176 35.5755 67.0478 28.3157 69.1631 26.2004C71.2785 24.085 78.5383 20.2549 80.6536 22.3702C82.769 24.4855 78.9388 31.7453 76.8235 33.8607Z" fill="#3A0035"/>
<path d="M93.3335 49.9997C93.3335 52.9912 85.4917 55.4163 82.5002 55.4163C79.5087 55.4163 60.8335 52.9912 60.8335 49.9997C60.8335 47.0081 79.5087 44.583 82.5002 44.583C85.4917 44.583 93.3335 47.0081 93.3335 49.9997Z" fill="white"/>
<path d="M80.6287 80.6543C78.5134 82.7697 71.2536 78.9395 69.1383 76.8242C67.0229 74.7088 63.1928 67.449 65.3081 65.3337C67.4234 63.2184 74.6832 67.0485 76.7986 69.1639C78.9139 71.2792 82.7441 78.539 80.6287 80.6543Z" fill="white"/>
<path d="M55.4168 82.4999C55.4168 85.4915 52.9917 93.3333 50.0002 93.3333C47.0086 93.3333 44.5835 85.4915 44.5835 82.4999C44.5835 79.5084 47.0086 60.8333 50.0002 60.8333C52.9917 60.8333 55.4168 79.5084 55.4168 82.4999Z" fill="white"/>
<path d="M30.8363 76.7976C28.7209 78.9129 21.4611 82.7431 19.3458 80.6277C17.2304 78.5124 21.0606 71.2526 23.1759 69.1373C25.2913 67.0219 32.5511 63.1918 34.6664 65.3071C36.7818 67.4224 32.9516 74.6822 30.8363 76.7976Z" fill="white"/>
<path d="M39.1667 49.9997C39.1667 52.9912 20.4915 55.4163 17.5 55.4163C14.5084 55.4163 6.66665 52.9912 6.66665 49.9997C6.66665 47.0081 14.5084 44.583 17.5 44.583C20.4915 44.583 39.1667 47.0081 39.1667 49.9997Z" fill="white"/>
<path d="M34.6922 34.6642C32.5768 36.7796 25.317 32.9494 23.2017 30.8341C21.0863 28.7187 17.2562 21.4589 19.3715 19.3436C21.4869 17.2282 28.7467 21.0584 30.862 23.1738C32.9773 25.2891 36.8075 32.5489 34.6922 34.6642Z" fill="white"/>
<path d="M55.4168 17.5002C55.4168 20.4917 52.9917 39.1669 50.0002 39.1669C47.0086 39.1669 44.5835 20.4917 44.5835 17.5002C44.5835 14.5087 47.0086 6.66687 50.0002 6.66687C52.9917 6.66687 55.4168 14.5087 55.4168 17.5002Z" fill="white"/>
<path d="M76.8235 30.8607C74.7081 32.976 67.4483 36.8062 65.333 34.6908C63.2177 32.5755 67.0478 25.3157 69.1632 23.2004C71.2785 21.085 78.5383 17.2549 80.6536 19.3702C82.769 21.4855 78.9388 28.7453 76.8235 30.8607Z" fill="white"/>
</svg>
